# xmcd
#
# Track frame offsets: 
#        182
#        48632
#        86807
#        125957
#        166607
#        202982
#        232232
#        281042
#        308937
#
# Disc length: 4595 seconds
#
# Revision: 8
# Processed by: cddbd v1.5.2PL0 Copyright (c) Steve Scherf et al.
# Submitted via: ExactAudioCopy v1.1
#
DISCID=8511f109
DTITLE=Vladimir Ashkenazy and Philharmonia Orchestra - Mozart The Piano 
DTITLE=Concertos CD04
DYEAR=1981
DGENRE=Classical
TTITLE0=Mozart Piano Concerto No 13 in C KV 415(387b) - 1 Allegro(Cade
TTITLE0=nza Mozart)
TTITLE1=Mozart Piano Concerto No 13 in C KV 415(387b) - 2 Andante
TTITLE2=Mozart Piano Concerto No 13 in C KV 415(387b) - 3 Allegro(Cade
TTITLE2=nza Mozart)
TTITLE3=Mozart Piano Concerto No 14 in E Flat KV 449 - 1 Allegro vivac
TTITLE3=e(Cadenza Mozart)
TTITLE4=Mozart Piano Concerto No 14 in E Flat KV 449 - 2 Andantino
TTITLE5=Mozart Piano Concerto No 14 in E Flat KV 449 - 3 Allegro ma no
TTITLE5=n troppo
TTITLE6=Mozart Piano Concerto No 15 in B KV 450 - 1 Allegro(Cadenza Mo
TTITLE6=zart)
TTITLE7=Mozart Piano Concerto No 15 in B KV 450 - 2 Andante
TTITLE8=Mozart Piano Concerto No 15 in B KV 450 - 3 Allegro(Cadenza Mo
TTITLE8=zart)
EXTD=
EXTT0=
EXTT1=
EXTT2=
EXTT3=
EXTT4=
EXTT5=
EXTT6=
EXTT7=
EXTT8=
PLAYORDER=
